<?xml version="1.0" encoding="utf-8"?>
<!-- Generator: Adobe Illustrator 27.7.0, SVG Export Plug-In . SVG Version: 6.00 Build 0)  -->
<svg version="1.1" id="Warstwa_1" xmlns="http://www.w3.org/2000/svg" xmlns:xlink="http://www.w3.org/1999/xlink" x="0px" y="0px"
	 viewBox="0 0 400 950" style="enable-background:new 0 0 400 950;" xml:space="preserve">
<style type="text/css">
	.st0{clip-path:url(#SVGID_00000039134233653285965930000006292306625263481778_);}
</style>
<g>
	<defs>
		<rect id="SVGID_1_" x="19.51" y="40.5" width="360.98" height="869.01"/>
	</defs>
	<clipPath id="SVGID_00000000912387579207278290000012777338522939030695_">
		<use xlink:href="#SVGID_1_"  style="overflow:visible;"/>
	</clipPath>
	<path style="clip-path:url(#SVGID_00000000912387579207278290000012777338522939030695_);" d="M151.16,794.84V684.42l150.76,110.42
		H151.16z M376.77,859.6v-67.95L170.27,632.4h-68.48v162.44H26.41v64.76h75.38v49.9h49.37v-49.9H376.77z M326.87,473.14
		c0,22.83-10.62,44.59-28.14,56.27c-19.64,13.8-49.9,19.64-98.74,19.64c-49.37,0-78.57-5.84-98.74-19.64
		c-17.52-11.68-28.14-33.44-28.14-56.27c0-23.36,10.62-45.12,28.14-56.8c20.7-13.8,49.37-19.64,100.86-19.64
		c46.71,0,76.97,6.37,96.61,19.64C316.26,428.02,326.87,449.78,326.87,473.14 M380.49,473.14c0-36.1-13.8-71.13-37.69-95.02
		c-30.79-31.85-81.22-49.37-140.14-49.37c-65.3,0-113.6,16.46-145.45,49.37c-23.89,24.42-37.69,58.92-37.69,95.02
		c0,35.57,13.8,70.07,37.69,94.49C87.99,600.01,137.89,617,200,617c62.11,0,112.01-16.99,142.8-49.37
		C367.22,543.21,380.49,508.71,380.49,473.14 M151.16,202.94V92.52l150.76,110.42H151.16z M376.77,267.7v-67.95L170.27,40.5h-68.48
		v162.44H26.41v64.76h75.38v49.9h49.37v-49.9H376.77z"/>
</g>
</svg>
