<?xml version="1.0" encoding="utf-8"?>
<!-- Generator: Adobe Illustrator 27.7.0, SVG Export Plug-In . SVG Version: 6.00 Build 0)  -->
<svg version="1.1" id="Warstwa_1" xmlns="http://www.w3.org/2000/svg" xmlns:xlink="http://www.w3.org/1999/xlink" x="0px" y="0px"
	 viewBox="0 0 1400 600" style="enable-background:new 0 0 1400 600;" xml:space="preserve">
<style type="text/css">
	.st0{clip-path:url(#SVGID_00000049931196341482537300000002068997276632331451_);}
</style>
<g>
	<defs>
		<rect id="SVGID_1_" x="72.55" y="39.36" width="1254.91" height="521.28"/>
	</defs>
	<clipPath id="SVGID_00000154416057477884338890000004098994970727192491_">
		<use xlink:href="#SVGID_1_"  style="overflow:visible;"/>
	</clipPath>
	<path style="clip-path:url(#SVGID_00000154416057477884338890000004098994970727192491_);" d="M1161.87,370.53h-159.45
		l159.45-217.71V370.53z M1255.39,44.73h-98.12l-229.98,298.2v98.89h234.58v108.86h93.52V441.82h72.06v-71.29h-72.06V44.73z
		 M697.31,116.79c32.96,0,64.39,15.33,81.26,40.63c19.93,28.36,28.36,72.06,28.36,142.59c0,71.29-8.43,113.46-28.36,142.58
		c-16.87,25.3-48.3,40.63-81.26,40.63c-33.73,0-65.16-15.33-82.03-40.63c-19.93-29.9-28.36-71.29-28.36-145.65
		c0-67.46,9.2-111.16,28.36-139.52C632.15,132.12,663.58,116.79,697.31,116.79 M697.31,39.36c-52.13,0-102.72,19.93-137.22,54.43
		c-45.99,44.46-71.29,117.29-71.29,202.38c0,94.29,23.76,164.05,71.29,210.04c35.26,34.5,85.09,54.43,137.22,54.43
		c51.36,0,101.19-19.93,136.45-54.43c46.76-44.46,71.29-116.52,71.29-206.21c0-89.69-24.53-161.75-71.29-206.21
		C798.5,58.52,748.67,39.36,697.31,39.36 M307.12,370.53H147.67l159.45-217.71V370.53z M400.65,44.73h-98.12L72.55,342.93v98.89
		h234.58v108.86h93.52V441.82h72.06v-71.29h-72.06V44.73z"/>
</g>
</svg>
